<?xml version="1.0" encoding="UTF-8" standalone="no"?>
<!-- Created with Inkscape (http://www.inkscape.org/) -->

<svg
   width="210mm"
   height="297mm"
   viewBox="0 0 210 297"
   version="1.1"
   id="svg1"
   inkscape:version="1.3.2 (091e20e, 2023-11-25, custom)"
   sodipodi:docname="drawing.svg"
   xmlns:inkscape="http://www.inkscape.org/namespaces/inkscape"
   xmlns:sodipodi="http://sodipodi.sourceforge.net/DTD/sodipodi-0.dtd"
   xmlns="http://www.w3.org/2000/svg"
   xmlns:svg="http://www.w3.org/2000/svg">
  <sodipodi:namedview
     id="namedview1"
     pagecolor="#ffffff"
     bordercolor="#000000"
     borderopacity="0.25"
     inkscape:showpageshadow="2"
     inkscape:pageopacity="0.0"
     inkscape:pagecheckerboard="0"
     inkscape:deskcolor="#d1d1d1"
     inkscape:document-units="mm"
     inkscape:zoom="0.73139029"
     inkscape:cx="426.58483"
     inkscape:cy="435.47201"
     inkscape:window-width="1920"
     inkscape:window-height="1017"
     inkscape:window-x="-8"
     inkscape:window-y="-8"
     inkscape:window-maximized="1"
     inkscape:current-layer="layer1" />
  <defs
     id="defs1" />
  <g
     inkscape:label="Layer 1"
     inkscape:groupmode="layer"
     id="layer1">
    <rect
       style="fill:#000000;stroke-width:0.264583"
       id="rect1"
       width="37.260658"
       height="19.534712"
       x="84.288673"
       y="132.58281" />
    <rect
       style="fill:none;stroke:#000000;stroke-width:0.264583"
       id="rect2"
       width="138.19002"
       height="68.371498"
       x="34.728378"
       y="108.16442" />
    <rect
       style="fill:#000000;stroke:none;stroke-width:0.264583"
       id="rect3"
       width="115.03775"
       height="5.788063"
       x="45.942753"
       y="117.57004" />
    <rect
       style="fill:#000000;stroke-width:0.162983"
       id="rect4"
       width="37.260658"
       height="7.4125042"
       x="84.288673"
       y="153.79651" />
    <rect
       style="fill:#000000;stroke-width:0.100086"
       id="rect5"
       width="37.260658"
       height="2.7952876"
       x="84.288673"
       y="162.888" />
    <circle
       style="fill:#000000;stroke-width:0.0561236"
       id="circle7"
       cx="63.849571"
       cy="147.77647"
       r="3.7984164" />
    <circle
       style="fill:#000000;stroke-width:0.0561236"
       id="circle8"
       cx="143.07368"
       cy="147.77647"
       r="3.7984164" />
    <path
       id="circle9"
       style="fill:#000000;stroke-width:0.200442"
       d="m 63.849313,134.6398 c -7.254963,1.1e-4 -13.136324,5.88171 -13.136149,13.13667 h 8.9085 c -9.5e-5,-2.33499 1.892661,-4.22798 4.227649,-4.22817 2.335188,-9e-5 4.22826,1.89298 4.228165,4.22817 h 8.908501 c 1.75e-4,-7.25515 -5.881509,-13.13684 -13.136666,-13.13667 z" />
    <path
       id="path12"
       style="fill:#000000;stroke-width:0.200442"
       d="m 143.07343,134.6398 c -7.25497,1.1e-4 -13.13633,5.88171 -13.13615,13.13667 h 8.9085 c -1e-4,-2.33499 1.89266,-4.22798 4.22765,-4.22817 2.33518,-9e-5 4.22826,1.89298 4.22816,4.22817 h 8.9085 c 1.8e-4,-7.25515 -5.88151,-13.13684 -13.13666,-13.13667 z" />
    <g
       id="g14">
      <path
         id="circle1"
         style="fill:#000000;stroke-width:0.264583"
         d="m 143.07344,129.86959 c -9.88954,2.3e-4 -17.90646,8.01738 -17.9064,17.90692 -6e-5,9.88954 8.01686,17.90669 17.9064,17.90692 9.88974,5e-5 17.90697,-8.01718 17.90691,-17.90692 6e-5,-9.88974 -8.01717,-17.90697 -17.90691,-17.90692 z m -6e-5,0.99512 c 9.34032,-2.2e-4 16.9123,7.57148 16.91244,16.9118 -1.4e-4,9.34032 -7.57212,16.91202 -16.91244,16.9118 -9.34008,-1.3e-4 -16.91167,-7.57172 -16.91181,-16.9118 1.4e-4,-9.34008 7.57173,-16.91167 16.91181,-16.9118 z"
         sodipodi:nodetypes="cccccccccc" />
      <path
         id="path13"
         style="fill:#000000;stroke-width:0.244539"
         d="m 143.07346,131.22617 c -9.14034,2.1e-4 -16.54992,7.41 -16.54986,16.55034 -6e-5,9.14034 7.40952,16.55013 16.54986,16.55034 9.14052,5e-5 16.55039,-7.40982 16.55033,-16.55034 6e-5,-9.14052 -7.40981,-16.55039 -16.55033,-16.55034 z m -6e-5,0.91973 c 8.63273,-2e-4 15.63108,6.99789 15.63121,15.63061 -1.3e-4,8.63272 -6.99848,15.63081 -15.63121,15.63061 -8.6325,-1.2e-4 -15.63049,-6.99811 -15.63062,-15.63061 1.3e-4,-8.6325 6.99812,-15.63049 15.63062,-15.63061 z"
         sodipodi:nodetypes="cccccccccc" />
      <path
         id="path14"
         style="fill:#000000;stroke-width:0.220486"
         d="m 143.07348,132.85406 c -8.24129,1.9e-4 -14.92207,6.68115 -14.92201,14.92245 -6e-5,8.2413 6.68072,14.92226 14.92201,14.92245 8.24146,4e-5 14.9225,-6.68099 14.92244,-14.92245 6e-5,-8.24146 -6.68098,-14.92249 -14.92244,-14.92245 z m -5e-5,0.82927 c 7.78361,-1.8e-4 14.0936,6.30958 14.09372,14.09318 -1.2e-4,7.7836 -6.31011,14.09336 -14.09372,14.09318 -7.78341,-1.1e-4 -14.09307,-6.30977 -14.09319,-14.09318 1.2e-4,-7.78341 6.30978,-14.09307 14.09319,-14.09318 z"
         sodipodi:nodetypes="cccccccccc" />
    </g>
    <g
       id="g17"
       transform="translate(-79.169691,-3.6000977e-5)">
      <path
         id="path15"
         style="fill:#000000;stroke-width:0.264583"
         d="m 143.07344,129.86959 c -9.88954,2.3e-4 -17.90646,8.01738 -17.9064,17.90692 -6e-5,9.88954 8.01686,17.90669 17.9064,17.90692 9.88974,5e-5 17.90697,-8.01718 17.90691,-17.90692 6e-5,-9.88974 -8.01717,-17.90697 -17.90691,-17.90692 z m -6e-5,0.99512 c 9.34032,-2.2e-4 16.9123,7.57148 16.91244,16.9118 -1.4e-4,9.34032 -7.57212,16.91202 -16.91244,16.9118 -9.34008,-1.3e-4 -16.91167,-7.57172 -16.91181,-16.9118 1.4e-4,-9.34008 7.57173,-16.91167 16.91181,-16.9118 z"
         sodipodi:nodetypes="cccccccccc" />
      <path
         id="path16"
         style="fill:#000000;stroke-width:0.244539"
         d="m 143.07346,131.22617 c -9.14034,2.1e-4 -16.54992,7.41 -16.54986,16.55034 -6e-5,9.14034 7.40952,16.55013 16.54986,16.55034 9.14052,5e-5 16.55039,-7.40982 16.55033,-16.55034 6e-5,-9.14052 -7.40981,-16.55039 -16.55033,-16.55034 z m -6e-5,0.91973 c 8.63273,-2e-4 15.63108,6.99789 15.63121,15.63061 -1.3e-4,8.63272 -6.99848,15.63081 -15.63121,15.63061 -8.6325,-1.2e-4 -15.63049,-6.99811 -15.63062,-15.63061 1.3e-4,-8.6325 6.99812,-15.63049 15.63062,-15.63061 z"
         sodipodi:nodetypes="cccccccccc" />
      <path
         id="path17"
         style="fill:#000000;stroke-width:0.220486"
         d="m 143.07348,132.85406 c -8.24129,1.9e-4 -14.92207,6.68115 -14.92201,14.92245 -6e-5,8.2413 6.68072,14.92226 14.92201,14.92245 8.24146,4e-5 14.9225,-6.68099 14.92244,-14.92245 6e-5,-8.24146 -6.68098,-14.92249 -14.92244,-14.92245 z m -5e-5,0.82927 c 7.78361,-1.8e-4 14.0936,6.30958 14.09372,14.09318 -1.2e-4,7.7836 -6.31011,14.09336 -14.09372,14.09318 -7.78341,-1.1e-4 -14.09307,-6.30977 -14.09319,-14.09318 1.2e-4,-7.78341 6.30978,-14.09307 14.09319,-14.09318 z"
         sodipodi:nodetypes="cccccccccc" />
    </g>
  </g>
</svg>
