<?xml version="1.0" encoding="UTF-8" standalone="no"?>
<!-- Uploaded to: SVG Repo, www.svgrepo.com, Generator: SVG Repo Mixer Tools -->

<svg
   version="1.1"
   id="Layer_1"
   viewBox="0 0 512 512"
   xml:space="preserve"
   sodipodi:docname="addfolder.svg"
   inkscape:version="1.3.2 (091e20e, 2023-11-25, custom)"
   xmlns:inkscape="http://www.inkscape.org/namespaces/inkscape"
   xmlns:sodipodi="http://sodipodi.sourceforge.net/DTD/sodipodi-0.dtd"
   xmlns="http://www.w3.org/2000/svg"
   xmlns:svg="http://www.w3.org/2000/svg"><defs
   id="defs6" /><sodipodi:namedview
   id="namedview6"
   pagecolor="#ffffff"
   bordercolor="#000000"
   borderopacity="0.25"
   inkscape:showpageshadow="2"
   inkscape:pageopacity="0.0"
   inkscape:pagecheckerboard="0"
   inkscape:deskcolor="#d1d1d1"
   inkscape:zoom="1.1338568"
   inkscape:cx="99.659851"
   inkscape:cy="265.02465"
   inkscape:window-width="1920"
   inkscape:window-height="1017"
   inkscape:window-x="-8"
   inkscape:window-y="-8"
   inkscape:window-maximized="1"
   inkscape:current-layer="Layer_1" />
<path
   id="SVGCleanerId_0"
   style="fill:#FFC36E;"
   d="M183.295,123.586H55.05c-6.687,0-12.801-3.778-15.791-9.76l-12.776-25.55  l12.776-25.55c2.99-5.982,9.103-9.76,15.791-9.76h128.246c6.687,0,12.801,3.778,15.791,9.76l12.775,25.55l-12.776,25.55  C196.096,119.808,189.983,123.586,183.295,123.586z" />
<g
   id="g1">
	<path
   id="SVGCleanerId_0_1_"
   style="fill:#FFC36E;"
   d="M183.295,123.586H55.05c-6.687,0-12.801-3.778-15.791-9.76l-12.776-25.55   l12.776-25.55c2.99-5.982,9.103-9.76,15.791-9.76h128.246c6.687,0,12.801,3.778,15.791,9.76l12.775,25.55l-12.776,25.55   C196.096,119.808,189.983,123.586,183.295,123.586z" />
</g>
<path
   style="fill:#EFF2FA;"
   d="M485.517,70.621H26.483c-4.875,0-8.828,3.953-8.828,8.828v44.138h476.69V79.448  C494.345,74.573,490.392,70.621,485.517,70.621z"
   id="path1" />
<rect
   x="17.655"
   y="105.931"
   style="fill:#E1E6F2;"
   width="476.69"
   height="17.655"
   id="rect1" />
<path
   id="path2"
   style="fill:#ffd782"
   d="M 17.654297,88.275391 C 7.9033066,88.275391 0,96.18065 0,105.93164 v 335.44727 c 0,9.75099 7.9033066,17.65429 17.654297,17.65429 H 494.3457 c 9.75099,0 17.6543,-7.9033 17.6543,-17.65429 V 105.93164 c 0,-9.75099 -7.90331,-17.656249 -17.6543,-17.656249 H 217.31836 c -3.343,0 -6.39953,1.888909 -7.89453,4.878906 l -10.33594,20.671873 c -2.99,5.982 -9.10502,9.75977 -15.79101,9.75977 H 55.050781 c -6.686993,0 -12.801018,-3.77777 -15.791015,-9.75977 L 28.921875,93.154297 C 27.426876,90.1643 24.37034,88.275391 21.027344,88.275391 Z M 256,181.81574 c 9.81948,0 17.72453,7.90506 17.72453,17.72454 v 56.38976 h 56.39117 c 9.81947,0 17.72453,7.90506 17.72453,17.72454 0,9.81947 -7.90506,17.72593 -17.72453,17.72593 h -56.39117 v 56.38976 c 0,9.81947 -7.90505,17.72454 -17.72453,17.72454 -9.81948,0 -17.72453,-7.90507 -17.72453,-17.72454 V 291.38051 H 181.8843 c -9.81947,0 -17.72453,-7.90646 -17.72453,-17.72593 0,-9.81948 7.90506,-17.72454 17.72453,-17.72454 h 56.39117 v -56.38976 c 0,-9.81948 7.90505,-17.72454 17.72453,-17.72454 z"
   sodipodi:nodetypes="sssssssssscssccsssscssscssscssscss" />
<path
   style="fill:#FFC36E;"
   d="M485.517,441.379H26.483c-4.875,0-8.828-3.953-8.828-8.828l0,0c0-4.875,3.953-8.828,8.828-8.828  h459.034c4.875,0,8.828,3.953,8.828,8.828l0,0C494.345,437.427,490.392,441.379,485.517,441.379z"
   id="path3" />



</svg>
