<?xml version="1.0" encoding="UTF-8" standalone="no"?>
<!-- Uploaded to: SVG Repo, www.svgrepo.com, Generator: SVG Repo Mixer Tools -->

<svg
   version="1.1"
   id="Layer_1"
   viewBox="0 0 512 512"
   xml:space="preserve"
   sodipodi:docname="playlist.svg"
   inkscape:version="1.3.2 (091e20e, 2023-11-25, custom)"
   xmlns:inkscape="http://www.inkscape.org/namespaces/inkscape"
   xmlns:sodipodi="http://sodipodi.sourceforge.net/DTD/sodipodi-0.dtd"
   xmlns="http://www.w3.org/2000/svg"
   xmlns:svg="http://www.w3.org/2000/svg"><defs
   id="defs6" /><sodipodi:namedview
   id="namedview6"
   pagecolor="#ffffff"
   bordercolor="#000000"
   borderopacity="0.25"
   inkscape:showpageshadow="2"
   inkscape:pageopacity="0.0"
   inkscape:pagecheckerboard="0"
   inkscape:deskcolor="#d1d1d1"
   inkscape:zoom="1.1338568"
   inkscape:cx="237.24337"
   inkscape:cy="276.48995"
   inkscape:window-width="1920"
   inkscape:window-height="1017"
   inkscape:window-x="-8"
   inkscape:window-y="-8"
   inkscape:window-maximized="1"
   inkscape:current-layer="Layer_1" />
<path
   id="SVGCleanerId_0"
   style="fill:#FFC36E;"
   d="M183.295,123.586H55.05c-6.687,0-12.801-3.778-15.791-9.76l-12.776-25.55  l12.776-25.55c2.99-5.982,9.103-9.76,15.791-9.76h128.246c6.687,0,12.801,3.778,15.791,9.76l12.775,25.55l-12.776,25.55  C196.096,119.808,189.983,123.586,183.295,123.586z" />
<g
   id="g1">
	<path
   id="SVGCleanerId_0_1_"
   style="fill:#FFC36E;"
   d="M183.295,123.586H55.05c-6.687,0-12.801-3.778-15.791-9.76l-12.776-25.55   l12.776-25.55c2.99-5.982,9.103-9.76,15.791-9.76h128.246c6.687,0,12.801,3.778,15.791,9.76l12.775,25.55l-12.776,25.55   C196.096,119.808,189.983,123.586,183.295,123.586z" />
</g>
<path
   style="fill:#EFF2FA;"
   d="M485.517,70.621H26.483c-4.875,0-8.828,3.953-8.828,8.828v44.138h476.69V79.448  C494.345,74.573,490.392,70.621,485.517,70.621z"
   id="path1" />
<rect
   x="17.655"
   y="105.931"
   style="fill:#E1E6F2;"
   width="476.69"
   height="17.655"
   id="rect1" />
<path
   id="path2"
   style="fill:#ffd782"
   d="M 17.654297,88.275391 C 7.9033066,88.275391 0,96.18065 0,105.93164 v 335.44727 c 0,9.75099 7.9033066,17.65429 17.654297,17.65429 H 494.3457 c 9.75099,0 17.6543,-7.9033 17.6543,-17.65429 V 105.93164 c 0,-9.75099 -7.90331,-17.656249 -17.6543,-17.656249 H 217.31836 c -3.343,0 -6.39953,1.888909 -7.89453,4.878906 l -10.33594,20.671873 c -2.99,5.982 -9.10502,9.75977 -15.79101,9.75977 H 55.050781 c -6.686993,0 -12.801018,-3.77777 -15.791015,-9.75977 L 28.921875,93.154297 C 27.426876,90.1643 24.37034,88.275391 21.027344,88.275391 Z M 191.70711,168.85859 h 29.94081 c 8.26785,8.3e-4 14.97116,6.70255 14.97195,14.9704 v 14.97195 c -8.2e-4,8.26786 -6.7041,14.96962 -14.97195,14.97041 h -14.9704 v 59.88315 c 0,13.72331 -5.68544,25.92192 -14.38624,33.65597 -8.70081,7.73405 -19.71422,11.25679 -30.52652,11.25679 -10.81229,0 -21.82572,-3.52274 -30.52652,-11.25679 -8.7008,-7.73405 -14.38623,-19.93266 -14.38623,-33.65597 0,-13.72331 5.68543,-25.92038 14.38623,-33.65443 8.7008,-7.73404 19.71423,-11.25832 30.52652,-11.25832 5.30322,0 11.4273,1.67173 14.9704,3.95625 v -33.89706 -14.97195 c 8.3e-4,-8.26785 6.7041,-14.96961 14.97195,-14.9704 z m 89.82551,0 h 89.82551 c 8.26819,0 14.97041,6.7022 14.97041,14.9704 0,8.26819 -6.70222,14.97195 -14.97041,14.97195 h -89.82551 c -8.26819,0 -14.97195,-6.70376 -14.97195,-14.97195 0,-8.2682 6.70376,-14.9704 14.97195,-14.9704 z m 0,59.88316 h 89.82551 c 8.26819,0 14.97041,6.70374 14.97041,14.97194 0,8.2682 -6.70222,14.97041 -14.97041,14.97041 h -89.82551 c -8.26819,-10e-6 -14.97195,-6.70221 -14.97195,-14.97041 0,-8.2682 6.70376,-14.97194 14.97195,-14.97194 z M 161.76476,258.6841 c -4.15858,0 -8.11589,1.46709 -10.64325,3.71362 -2.52735,2.24653 -4.32715,5.01892 -4.32715,11.25678 0,6.23786 1.7998,9.0118 4.32715,11.25832 2.52736,2.24654 6.48467,3.71363 10.64325,3.71363 4.15858,0 8.1159,-1.46709 10.64325,-3.71363 2.52736,-2.24652 4.32715,-5.02046 4.32715,-11.25832 0,-6.23786 -1.79979,-9.01025 -4.32715,-11.25678 -2.52735,-2.24648 -6.48467,-3.71362 -10.64325,-3.71362 z m 89.82551,29.94235 h 119.76786 c 8.26819,0 14.97041,6.7022 14.97041,14.9704 0,8.2682 -6.70222,14.97041 -14.97041,14.97041 H 251.59027 c -8.2682,0 -14.9704,-6.70221 -14.9704,-14.97041 0,-8.2682 6.7022,-14.9704 14.9704,-14.9704 z M 131.82241,348.5096 h 239.53572 c 8.26819,0 14.97041,6.70221 14.97041,14.97041 0,8.26819 -6.70222,14.97195 -14.97041,14.97195 H 131.82241 c -8.26819,0 -14.9704,-6.70376 -14.9704,-14.97195 0,-8.2682 6.70221,-14.97041 14.9704,-14.97041 z"
   sodipodi:nodetypes="sssssssssscssccssccccccsssssssccccssssssssssscsssssssssssssssssssssssss" />
<path
   style="fill:#FFC36E;"
   d="M485.517,441.379H26.483c-4.875,0-8.828-3.953-8.828-8.828l0,0c0-4.875,3.953-8.828,8.828-8.828  h459.034c4.875,0,8.828,3.953,8.828,8.828l0,0C494.345,437.427,490.392,441.379,485.517,441.379z"
   id="path3" />



</svg>
